<svg width="44" height="44" viewBox="0 0 44 44" xmlns="http://www.w3.org/2000/svg">
<g id="Logo" clip-path="url(#clip0_0_55)">
<path id="Vector" d="M3.66211e-06 -4.88281e-06V43.9994H44.1074V-4.88281e-06H3.66211e-06ZM40.6899 40.5908H3.41808V3.40975H40.6893L40.6899 40.5908Z"/>
<path id="Vector_2" d="M7.29529 30.6449C7.77155 31.1563 8.3495 31.5631 8.99222 31.8392C9.63494 32.1152 10.3283 32.2546 11.0281 32.2483C12.3299 32.2483 13.408 31.8019 14.2624 30.9091V37.1192H17.9644V28.5871C18.029 29.0831 18.1687 29.5665 18.3787 30.0207C18.6761 30.6708 19.0998 31.2557 19.6252 31.7415C20.1506 32.2273 20.7673 32.6044 21.4396 32.851C22.133 33.1097 22.8678 33.2404 23.6081 33.2367C24.4219 33.2367 25.2824 33.0407 26.1897 32.6487V28.852C25.5926 29.3254 24.9485 29.562 24.2572 29.562C23.9162 29.564 23.578 29.5016 23.2602 29.3781C22.9592 29.2633 22.6856 29.087 22.4569 28.8606C22.2307 28.6338 22.0511 28.3651 21.9283 28.0696C21.838 27.8543 21.7794 27.6272 21.7543 27.3952C21.7785 27.16 21.8371 26.9297 21.9283 26.7115C22.052 26.4137 22.2354 26.1443 22.4673 25.9199C22.6983 25.6962 22.9713 25.5203 23.2707 25.4024C23.5836 25.2787 23.9175 25.2163 24.2541 25.2185H24.2738C24.5037 25.2142 24.7114 25.2062 24.8995 25.1964H27.8498V32.4929H31.5371V25.1964H34.2096V21.5064H31.5371V20.786C31.5303 20.4092 31.5541 20.0325 31.6084 19.6596C31.6555 19.3824 31.7469 19.1695 31.8825 19.0207C31.9988 18.8846 32.1501 18.7829 32.3202 18.7264C32.4685 18.6802 32.6228 18.6562 32.7781 18.6552C33.0016 18.6544 33.224 18.6851 33.4388 18.7466C33.6733 18.8173 33.9008 18.909 34.1186 19.0207V15.8145C33.8596 15.6969 33.5908 15.602 33.3153 15.5306C33.0325 15.4605 32.7419 15.4263 32.4505 15.4288C31.9873 15.4316 31.5275 15.5069 31.0878 15.652C30.6298 15.7996 30.1952 16.0115 29.797 16.2811C29.4021 16.5481 29.0498 16.873 28.7521 17.245C28.4591 17.6027 28.2362 18.0123 28.0951 18.4523C27.9312 18.9665 27.8492 19.6565 27.8492 20.5223V21.5064H23.2123V21.5254C22.598 21.5669 21.9936 21.7006 21.4194 21.9221C20.7351 22.1821 20.1094 22.5749 19.5785 23.0779C19.058 23.5797 18.6432 24.1801 18.3584 24.8438C18.1595 25.3032 18.0269 25.7883 17.9644 26.2847V21.5138H14.2654V22.6708C13.4787 21.6828 12.4133 21.189 11.0692 21.1894C10.3552 21.1826 9.64801 21.3279 8.9948 21.6156C8.36589 21.8933 7.79878 22.2933 7.32664 22.7922C6.8444 23.3041 6.46469 23.9033 6.20797 24.5575C5.66905 25.951 5.66533 27.494 6.19752 28.89C6.44886 29.539 6.82137 30.1345 7.29529 30.6449ZM9.81536 25.785C9.94172 25.5113 10.1136 25.2609 10.3237 25.0443C10.5374 24.8259 10.7936 24.6534 11.0766 24.5372C11.6694 24.2936 12.3346 24.2936 12.9273 24.5372C13.2101 24.6537 13.4663 24.8262 13.6803 25.0443C13.8919 25.2636 14.0638 25.5177 14.1886 25.7954C14.318 26.0824 14.384 26.3938 14.3822 26.7084C14.3834 27.0264 14.3174 27.341 14.1886 27.6318C14.0659 27.9136 13.8938 28.1713 13.6803 28.3928C13.4676 28.6121 13.2122 28.7857 12.9298 28.9029C12.6368 29.0256 12.3219 29.0882 12.0041 29.0868C11.6798 29.0894 11.3584 29.0268 11.0588 28.9029C10.7756 28.7872 10.5193 28.6146 10.3058 28.3958C9.86385 27.9385 9.61913 27.3265 9.6242 26.6912C9.62099 26.3786 9.68711 26.0692 9.81782 25.785H9.81536Z"/>
</g>
<defs>
<clipPath id="clip0_0_55">
<rect width="44" height="44" fill="white"/>
</clipPath>
</defs>
</svg>
